<svg width="94" height="32" viewBox="0 0 94 32" fill="none" xmlns="http://www.w3.org/2000/svg">
<rect x="0.5" y="0.5" width="93" height="31" rx="15.5" fill="#FFC6B5"/>
<rect x="0.5" y="0.5" width="93" height="31" rx="15.5" stroke="#ED653F"/>
<path fill-rule="evenodd" clip-rule="evenodd" d="M30 15V22C30 22.5304 29.7893 23.0391 29.4142 23.4142C29.0391 23.7893 28.5304 24 28 24H16C15.4696 24 14.9609 23.7893 14.5858 23.4142C14.2107 23.0391 14 22.5304 14 22V15H13C12.7348 15 12.4804 14.8946 12.2929 14.7071C12.1054 14.5196 12 14.2652 12 14C12 13.7348 12.1054 13.4804 12.2929 13.2929C12.4804 13.1054 12.7348 13 13 13H31C31.2652 13 31.5196 13.1054 31.7071 13.2929C31.8946 13.4804 32 13.7348 32 14C32 14.2652 31.8946 14.5196 31.7071 14.7071C31.5196 14.8946 31.2652 15 31 15H30ZM16 15V22H28V15H16ZM21 10V9C21 8.73478 21.1054 8.48043 21.2929 8.29289C21.4804 8.10536 21.7348 8 22 8C22.2652 8 22.5196 8.10536 22.7071 8.29289C22.8946 8.48043 23 8.73478 23 9V10H29C29.2652 10 29.5196 10.1054 29.7071 10.2929C29.8946 10.4804 30 10.7348 30 11C30 11.2652 29.8946 11.5196 29.7071 11.7071C29.5196 11.8946 29.2652 12 29 12H15C14.7348 12 14.4804 11.8946 14.2929 11.7071C14.1054 11.5196 14 11.2652 14 11C14 10.7348 14.1054 10.4804 14.2929 10.2929C14.4804 10.1054 14.7348 10 15 10H21Z" fill="#ED653F"/>
<path d="M53.3125 15.3828H40.5156V14.1875H53.3125V15.3828ZM45.3516 10.5312H41.7109V9.34375H45.3516V10.5312ZM46.3359 10.125C46.3255 10.5833 46.3073 11.0208 46.2812 11.4375C46.2552 11.8542 46.1927 12.3464 46.0938 12.9141C46 13.4818 45.8542 14.0807 45.6562 14.7109L44.2422 14.4062C44.4453 13.7552 44.5911 13.1589 44.6797 12.6172C44.7734 12.0703 44.8307 11.6068 44.8516 11.2266C44.8724 10.8464 44.8828 10.4349 44.8828 9.99219V9.34375H46.3359V9.99219V10.125ZM50.9922 10.5312H47.2344V9.34375H50.9922V10.5312ZM51.7891 9.95312C51.7891 10.4219 51.7812 10.862 51.7656 11.2734C51.75 11.6849 51.6979 12.1849 51.6094 12.7734C51.526 13.3568 51.3958 13.987 51.2188 14.6641L49.7891 14.4688C49.9557 13.8333 50.0781 13.2396 50.1562 12.6875C50.2396 12.1354 50.2917 11.6589 50.3125 11.2578C50.3333 10.8568 50.3438 10.4427 50.3438 10.0156V9.95312V9.34375H51.7891V9.95312ZM46.2891 20.1016H43.1797V21.8906H41.7969V19.0703H44.8828V17.7891H41.7344V16.6797H46.2891V20.1016ZM42.5859 21.5C43.763 21.5 44.6276 21.4896 45.1797 21.4688C45.737 21.4427 46.2995 21.3776 46.8672 21.2734L47.0156 22.3984C46.4323 22.5026 45.862 22.5703 45.3047 22.6016C44.7474 22.6328 43.8411 22.6484 42.5859 22.6484H41.7969V21.5H42.5859ZM52.7422 18.4375H46.7578V17.3359H52.7422V18.4375ZM49.7422 18.9141C50.2109 18.9141 50.6276 18.9948 50.9922 19.1562C51.3568 19.3125 51.6432 19.5391 51.8516 19.8359C52.0599 20.1276 52.1641 20.4714 52.1641 20.8672C52.1641 21.2578 52.0599 21.599 51.8516 21.8906C51.6432 22.1823 51.3568 22.4062 50.9922 22.5625C50.6276 22.724 50.2109 22.8047 49.7422 22.8047C49.2839 22.8047 48.8698 22.724 48.5 22.5625C48.1302 22.4062 47.8411 22.1823 47.6328 21.8906C47.4245 21.599 47.3203 21.2578 47.3203 20.8672C47.3203 20.4714 47.4245 20.1276 47.6328 19.8359C47.8464 19.5391 48.1354 19.3125 48.5 19.1562C48.8698 18.9948 49.2839 18.9141 49.7422 18.9141ZM49.7422 19.9453C49.5078 19.9453 49.3047 19.9818 49.1328 20.0547C48.9609 20.1224 48.8255 20.2266 48.7266 20.3672C48.6328 20.5078 48.5859 20.6745 48.5859 20.8672C48.5859 21.0495 48.6328 21.2109 48.7266 21.3516C48.8255 21.487 48.9609 21.5885 49.1328 21.6562C49.3099 21.7292 49.513 21.7656 49.7422 21.7656C49.9766 21.7656 50.1771 21.7292 50.3438 21.6562C50.5156 21.5885 50.6484 21.487 50.7422 21.3516C50.8411 21.2109 50.8906 21.0495 50.8906 20.8672C50.8906 20.6745 50.8411 20.5078 50.7422 20.3672C50.6484 20.2266 50.5156 20.1224 50.3438 20.0547C50.1771 19.9818 49.9766 19.9453 49.7422 19.9453ZM50.4453 18.0547H49.0078V16.0703H50.4453V18.0547ZM65.9453 22.8594H64.4531V8.82031H65.9453V22.8594ZM58.4453 9.875C59.1432 9.875 59.7656 10.0781 60.3125 10.4844C60.8594 10.8906 61.2865 11.4635 61.5938 12.2031C61.901 12.9427 62.0547 13.8047 62.0547 14.7891C62.0547 15.7786 61.901 16.6432 61.5938 17.3828C61.2865 18.1224 60.8594 18.6953 60.3125 19.1016C59.7656 19.5026 59.1432 19.7031 58.4453 19.7031C57.7474 19.7031 57.1224 19.5026 56.5703 19.1016C56.0234 18.6953 55.5964 18.1224 55.2891 17.3828C54.9818 16.6432 54.8281 15.7786 54.8281 14.7891C54.8281 13.8047 54.9818 12.9427 55.2891 12.2031C55.5964 11.4635 56.0234 10.8906 56.5703 10.4844C57.1224 10.0781 57.7474 9.875 58.4453 9.875ZM58.4453 11.2031C58.0182 11.2031 57.638 11.349 57.3047 11.6406C56.9714 11.9323 56.7135 12.349 56.5312 12.8906C56.3542 13.4271 56.2656 14.0599 56.2656 14.7891C56.2656 15.513 56.3542 16.1458 56.5312 16.6875C56.7135 17.2292 56.9714 17.6458 57.3047 17.9375C57.638 18.224 58.0182 18.3672 58.4453 18.3672C58.8724 18.3672 59.25 18.224 59.5781 17.9375C59.9115 17.6458 60.1693 17.2292 60.3516 16.6875C60.5339 16.1458 60.625 15.513 60.625 14.7891C60.625 14.0599 60.5339 13.4271 60.3516 12.8906C60.1693 12.349 59.9141 11.9323 59.5859 11.6406C59.2578 11.349 58.8776 11.2031 58.4453 11.2031ZM79.8125 22.8203H78.3125V8.82031H79.8125V22.8203ZM75.6562 10.3281C75.6562 11.7552 75.4349 13.0755 74.9922 14.2891C74.5547 15.4974 73.8516 16.612 72.8828 17.6328C71.9141 18.6484 70.6536 19.5286 69.1016 20.2734L68.3047 19.0703C69.6536 18.4349 70.7604 17.6953 71.625 16.8516C72.4948 16.0078 73.138 15.0651 73.5547 14.0234C73.9714 12.9818 74.1797 11.8307 74.1797 10.5703V10.3281H75.6562ZM74.8203 11.5156H68.9844V10.3281H74.8203V11.5156Z" fill="#ED653F"/>
</svg>
