<svg width="75" height="23" viewBox="0 0 75 23" fill="none" xmlns="http://www.w3.org/2000/svg">
<rect width="75" height="23" rx="11.5" fill="#ED653F"/>
<path fill-rule="evenodd" clip-rule="evenodd" d="M20.6 10.8125V15.625C20.6 15.9897 20.4525 16.3394 20.1899 16.5973C19.9274 16.8551 19.5713 17 19.2 17H10.8C10.4287 17 10.0726 16.8551 9.81005 16.5973C9.5475 16.3394 9.4 15.9897 9.4 15.625V10.8125H8.7C8.51435 10.8125 8.3363 10.7401 8.20503 10.6111C8.07375 10.4822 8 10.3073 8 10.125C8 9.94266 8.07375 9.7678 8.20503 9.63886C8.3363 9.50993 8.51435 9.4375 8.7 9.4375H21.3C21.4857 9.4375 21.6637 9.50993 21.795 9.63886C21.9263 9.7678 22 9.94266 22 10.125C22 10.3073 21.9263 10.4822 21.795 10.6111C21.6637 10.7401 21.4857 10.8125 21.3 10.8125H20.6ZM10.8 10.8125V15.625H19.2V10.8125H10.8ZM14.3 7.375V6.6875C14.3 6.50516 14.3737 6.3303 14.505 6.20136C14.6363 6.07243 14.8143 6 15 6C15.1857 6 15.3637 6.07243 15.495 6.20136C15.6263 6.3303 15.7 6.50516 15.7 6.6875V7.375H19.9C20.0857 7.375 20.2637 7.44743 20.395 7.57636C20.5263 7.7053 20.6 7.88016 20.6 8.0625C20.6 8.24484 20.5263 8.4197 20.395 8.54864C20.2637 8.67757 20.0857 8.75 19.9 8.75H10.1C9.91435 8.75 9.7363 8.67757 9.60503 8.54864C9.47375 8.4197 9.4 8.24484 9.4 8.0625C9.4 7.88016 9.47375 7.7053 9.60503 7.57636C9.7363 7.44743 9.91435 7.375 10.1 7.375H14.3Z" fill="#FFF7EF"/>
<path d="M41.6484 11.1475H30.4512V10.1016H41.6484V11.1475ZM34.6826 6.90234H31.4971V5.86328H34.6826V6.90234ZM35.5439 6.54688C35.5348 6.94792 35.5189 7.33073 35.4961 7.69531C35.4733 8.0599 35.4186 8.49056 35.332 8.9873C35.25 9.48405 35.1224 10.0081 34.9492 10.5596L33.7119 10.293C33.8896 9.72331 34.0173 9.2015 34.0947 8.72754C34.1768 8.24902 34.2269 7.84342 34.2451 7.51074C34.2633 7.17806 34.2725 6.81803 34.2725 6.43066V5.86328H35.5439V6.43066V6.54688ZM39.6182 6.90234H36.3301V5.86328H39.6182V6.90234ZM40.3154 6.39648C40.3154 6.80664 40.3086 7.19173 40.2949 7.55176C40.2812 7.91178 40.2357 8.34928 40.1582 8.86426C40.0853 9.37467 39.9714 9.92611 39.8164 10.5186L38.5654 10.3477C38.7113 9.79167 38.8184 9.27214 38.8867 8.78906C38.9596 8.30599 39.0052 7.889 39.0234 7.53809C39.0417 7.18717 39.0508 6.82487 39.0508 6.45117V6.39648V5.86328H40.3154V6.39648ZM35.5029 15.2764H32.7822V16.8418H31.5723V14.374H34.2725V13.2529H31.5176V12.2822H35.5029V15.2764ZM32.2627 16.5C33.2926 16.5 34.0492 16.4909 34.5322 16.4727C35.0199 16.4499 35.512 16.3929 36.0088 16.3018L36.1387 17.2861C35.6283 17.3773 35.1292 17.4365 34.6416 17.4639C34.154 17.4912 33.361 17.5049 32.2627 17.5049H31.5723V16.5H32.2627ZM41.1494 13.8203H35.9131V12.8564H41.1494V13.8203ZM38.5244 14.2373C38.9346 14.2373 39.2992 14.3079 39.6182 14.4492C39.9372 14.5859 40.1878 14.7842 40.3701 15.0439C40.5524 15.2992 40.6436 15.5999 40.6436 15.9463C40.6436 16.2881 40.5524 16.5866 40.3701 16.8418C40.1878 17.097 39.9372 17.293 39.6182 17.4297C39.2992 17.571 38.9346 17.6416 38.5244 17.6416C38.1234 17.6416 37.7611 17.571 37.4375 17.4297C37.1139 17.293 36.861 17.097 36.6787 16.8418C36.4964 16.5866 36.4053 16.2881 36.4053 15.9463C36.4053 15.5999 36.4964 15.2992 36.6787 15.0439C36.8656 14.7842 37.1185 14.5859 37.4375 14.4492C37.7611 14.3079 38.1234 14.2373 38.5244 14.2373ZM38.5244 15.1396C38.3193 15.1396 38.1416 15.1715 37.9912 15.2354C37.8408 15.2946 37.7223 15.3857 37.6357 15.5088C37.5537 15.6318 37.5127 15.7777 37.5127 15.9463C37.5127 16.1058 37.5537 16.2471 37.6357 16.3701C37.7223 16.4886 37.8408 16.5775 37.9912 16.6367C38.1462 16.7005 38.3239 16.7324 38.5244 16.7324C38.7295 16.7324 38.9049 16.7005 39.0508 16.6367C39.2012 16.5775 39.3174 16.4886 39.3994 16.3701C39.486 16.2471 39.5293 16.1058 39.5293 15.9463C39.5293 15.7777 39.486 15.6318 39.3994 15.5088C39.3174 15.3857 39.2012 15.2946 39.0508 15.2354C38.9049 15.1715 38.7295 15.1396 38.5244 15.1396ZM39.1396 13.4854H37.8818V11.749H39.1396V13.4854ZM52.7021 17.6895H51.3965V5.40527H52.7021V17.6895ZM46.1396 6.32812C46.7503 6.32812 47.2949 6.50586 47.7734 6.86133C48.252 7.2168 48.6257 7.7181 48.8945 8.36523C49.1634 9.01237 49.2979 9.7666 49.2979 10.6279C49.2979 11.4938 49.1634 12.2503 48.8945 12.8975C48.6257 13.5446 48.252 14.0459 47.7734 14.4014C47.2949 14.7523 46.7503 14.9277 46.1396 14.9277C45.529 14.9277 44.9821 14.7523 44.499 14.4014C44.0205 14.0459 43.6468 13.5446 43.3779 12.8975C43.109 12.2503 42.9746 11.4938 42.9746 10.6279C42.9746 9.7666 43.109 9.01237 43.3779 8.36523C43.6468 7.7181 44.0205 7.2168 44.499 6.86133C44.9821 6.50586 45.529 6.32812 46.1396 6.32812ZM46.1396 7.49023C45.766 7.49023 45.4333 7.61784 45.1416 7.87305C44.8499 8.12826 44.6243 8.49284 44.4648 8.9668C44.3099 9.4362 44.2324 9.98991 44.2324 10.6279C44.2324 11.2614 44.3099 11.8151 44.4648 12.2891C44.6243 12.763 44.8499 13.1276 45.1416 13.3828C45.4333 13.6335 45.766 13.7588 46.1396 13.7588C46.5133 13.7588 46.8438 13.6335 47.1309 13.3828C47.4225 13.1276 47.6481 12.763 47.8076 12.2891C47.9671 11.8151 48.0469 11.2614 48.0469 10.6279C48.0469 9.98991 47.9671 9.4362 47.8076 8.9668C47.6481 8.49284 47.4248 8.12826 47.1377 7.87305C46.8506 7.61784 46.5179 7.49023 46.1396 7.49023ZM64.8359 17.6553H63.5234V5.40527H64.8359V17.6553ZM61.1992 6.72461C61.1992 7.97331 61.0055 9.12858 60.6182 10.1904C60.2354 11.2477 59.6201 12.223 58.7725 13.1162C57.9248 14.0049 56.8219 14.7751 55.4639 15.4268L54.7666 14.374C55.9469 13.818 56.9154 13.1709 57.6719 12.4326C58.4329 11.6943 58.9958 10.8695 59.3604 9.95801C59.7249 9.04655 59.9072 8.03939 59.9072 6.93652V6.72461H61.1992ZM60.4678 7.76367H55.3613V6.72461H60.4678V7.76367Z" fill="#FFF7EF"/>
</svg>
