<svg width="106" height="36" viewBox="0 0 106 36" fill="none" xmlns="http://www.w3.org/2000/svg">
<rect width="106" height="36" rx="18" fill="#FFF2E3"/>
<path fill-rule="evenodd" clip-rule="evenodd" d="M31.8 16.9375V24.375C31.8 24.9386 31.5682 25.4791 31.1556 25.8776C30.7431 26.2761 30.1835 26.5 29.6 26.5H16.4C15.8165 26.5 15.2569 26.2761 14.8444 25.8776C14.4318 25.4791 14.2 24.9386 14.2 24.375V16.9375H13.1C12.8083 16.9375 12.5285 16.8256 12.3222 16.6263C12.1159 16.427 12 16.1568 12 15.875C12 15.5932 12.1159 15.323 12.3222 15.1237C12.5285 14.9244 12.8083 14.8125 13.1 14.8125H32.9C33.1917 14.8125 33.4715 14.9244 33.6778 15.1237C33.8841 15.323 34 15.5932 34 15.875C34 16.1568 33.8841 16.427 33.6778 16.6263C33.4715 16.8256 33.1917 16.9375 32.9 16.9375H31.8ZM16.4 16.9375V24.375H29.6V16.9375H16.4ZM21.9 11.625V10.5625C21.9 10.2807 22.0159 10.0105 22.2222 9.8112C22.4285 9.61194 22.7083 9.5 23 9.5C23.2917 9.5 23.5715 9.61194 23.7778 9.8112C23.9841 10.0105 24.1 10.2807 24.1 10.5625V11.625H30.7C30.9917 11.625 31.2715 11.7369 31.4778 11.9362C31.6841 12.1355 31.8 12.4057 31.8 12.6875C31.8 12.9693 31.6841 13.2395 31.4778 13.4388C31.2715 13.6381 30.9917 13.75 30.7 13.75H15.3C15.0083 13.75 14.7285 13.6381 14.5222 13.4388C14.3159 13.2395 14.2 12.9693 14.2 12.6875C14.2 12.4057 14.3159 12.1355 14.5222 11.9362C14.7285 11.7369 15.0083 11.625 15.3 11.625H21.9Z" fill="#ED653F"/>
<path d="M58.6406 17.3535H42.6445V15.8594H58.6406V17.3535ZM48.6895 11.2891H44.1387V9.80469H48.6895V11.2891ZM49.9199 10.7812C49.9069 11.3542 49.8841 11.901 49.8516 12.4219C49.819 12.9427 49.7409 13.5579 49.6172 14.2676C49.5 14.9772 49.3177 15.7259 49.0703 16.5137L47.3027 16.1328C47.5566 15.319 47.7389 14.5736 47.8496 13.8965C47.9668 13.2129 48.0384 12.6335 48.0645 12.1582C48.0905 11.6829 48.1035 11.1686 48.1035 10.6152V9.80469H49.9199V10.6152V10.7812ZM55.7402 11.2891H51.043V9.80469H55.7402V11.2891ZM56.7363 10.5664C56.7363 11.1523 56.7266 11.7025 56.707 12.2168C56.6875 12.7311 56.6224 13.3561 56.5117 14.0918C56.4076 14.821 56.2448 15.6087 56.0234 16.4551L54.2363 16.2109C54.4447 15.4167 54.5977 14.6745 54.6953 13.9844C54.7995 13.2943 54.8646 12.6986 54.8906 12.1973C54.9167 11.696 54.9297 11.1784 54.9297 10.6445V10.5664V9.80469H56.7363V10.5664ZM49.8613 23.252H45.9746V25.4883H44.2461V21.9629H48.1035V20.3613H44.168V18.9746H49.8613V23.252ZM45.2324 25C46.7038 25 47.7845 24.987 48.4746 24.9609C49.1712 24.9284 49.8743 24.847 50.584 24.7168L50.7695 26.123C50.0404 26.2533 49.3275 26.3379 48.6309 26.377C47.9342 26.416 46.8014 26.4355 45.2324 26.4355H44.2461V25H45.2324ZM57.9277 21.1719H50.4473V19.7949H57.9277V21.1719ZM54.1777 21.7676C54.7637 21.7676 55.2845 21.8685 55.7402 22.0703C56.196 22.2656 56.554 22.5488 56.8145 22.9199C57.0749 23.2845 57.2051 23.7142 57.2051 24.209C57.2051 24.6973 57.0749 25.1237 56.8145 25.4883C56.554 25.8529 56.196 26.1328 55.7402 26.3281C55.2845 26.5299 54.7637 26.6309 54.1777 26.6309C53.6048 26.6309 53.0872 26.5299 52.625 26.3281C52.1628 26.1328 51.8014 25.8529 51.541 25.4883C51.2806 25.1237 51.1504 24.6973 51.1504 24.209C51.1504 23.7142 51.2806 23.2845 51.541 22.9199C51.8079 22.5488 52.1693 22.2656 52.625 22.0703C53.0872 21.8685 53.6048 21.7676 54.1777 21.7676ZM54.1777 23.0566C53.8848 23.0566 53.6309 23.1022 53.416 23.1934C53.2012 23.278 53.0319 23.4082 52.9082 23.584C52.791 23.7598 52.7324 23.9681 52.7324 24.209C52.7324 24.4368 52.791 24.6387 52.9082 24.8145C53.0319 24.9837 53.2012 25.1107 53.416 25.1953C53.6374 25.2865 53.8913 25.332 54.1777 25.332C54.4707 25.332 54.7214 25.2865 54.9297 25.1953C55.1445 25.1107 55.3105 24.9837 55.4277 24.8145C55.5514 24.6387 55.6133 24.4368 55.6133 24.209C55.6133 23.9681 55.5514 23.7598 55.4277 23.584C55.3105 23.4082 55.1445 23.278 54.9297 23.1934C54.7214 23.1022 54.4707 23.0566 54.1777 23.0566ZM55.0566 20.6934H53.2598V18.2129H55.0566V20.6934ZM74.4316 26.6992H72.5664V9.15039H74.4316V26.6992ZM65.0566 10.4688C65.929 10.4688 66.707 10.7227 67.3906 11.2305C68.0742 11.7383 68.6081 12.4544 68.9922 13.3789C69.3763 14.3034 69.5684 15.3809 69.5684 16.6113C69.5684 17.8483 69.3763 18.929 68.9922 19.8535C68.6081 20.778 68.0742 21.4941 67.3906 22.002C66.707 22.5033 65.929 22.7539 65.0566 22.7539C64.1842 22.7539 63.403 22.5033 62.7129 22.002C62.0293 21.4941 61.4954 20.778 61.1113 19.8535C60.7272 18.929 60.5352 17.8483 60.5352 16.6113C60.5352 15.3809 60.7272 14.3034 61.1113 13.3789C61.4954 12.4544 62.0293 11.7383 62.7129 11.2305C63.403 10.7227 64.1842 10.4688 65.0566 10.4688ZM65.0566 12.1289C64.5228 12.1289 64.0475 12.3112 63.6309 12.6758C63.2142 13.0404 62.8919 13.5612 62.6641 14.2383C62.4427 14.9089 62.332 15.6999 62.332 16.6113C62.332 17.5163 62.4427 18.3073 62.6641 18.9844C62.8919 19.6615 63.2142 20.1823 63.6309 20.5469C64.0475 20.9049 64.5228 21.084 65.0566 21.084C65.5905 21.084 66.0625 20.9049 66.4727 20.5469C66.8893 20.1823 67.2116 19.6615 67.4395 18.9844C67.6673 18.3073 67.7812 17.5163 67.7812 16.6113C67.7812 15.6999 67.6673 14.9089 67.4395 14.2383C67.2116 13.5612 66.8926 13.0404 66.4824 12.6758C66.0723 12.3112 65.597 12.1289 65.0566 12.1289ZM91.7656 26.6504H89.8906V9.15039H91.7656V26.6504ZM86.5703 11.0352C86.5703 12.819 86.2936 14.4694 85.7402 15.9863C85.1934 17.4967 84.3145 18.89 83.1035 20.166C81.8926 21.4355 80.3171 22.5358 78.377 23.4668L77.3809 21.9629C79.0671 21.1686 80.4505 20.2441 81.5312 19.1895C82.6185 18.1348 83.4225 16.9564 83.9434 15.6543C84.4642 14.3522 84.7246 12.9134 84.7246 11.3379V11.0352H86.5703ZM85.5254 12.5195H78.2305V11.0352H85.5254V12.5195Z" fill="#ED653F"/>
</svg>
