<svg width="80" height="32" viewBox="0 0 80 32" fill="none" xmlns="http://www.w3.org/2000/svg">
<rect x="0.5" y="0.5" width="79" height="31" rx="15.5" fill="#FFC6B5"/>
<rect x="0.5" y="0.5" width="79" height="31" rx="15.5" stroke="#ED653F"/>
<circle cx="22" cy="16" r="2.30769" fill="#ED653F"/>
<circle cx="14.3077" cy="16" r="2.30769" fill="#ED653F"/>
<circle cx="29.6923" cy="16" r="2.30769" fill="#ED653F"/>
<path d="M52.1562 22.8203H50.6562V8.82031H52.1562V22.8203ZM48 10.3281C48 11.7552 47.7786 13.0755 47.3359 14.2891C46.8984 15.4974 46.1953 16.612 45.2266 17.6328C44.2578 18.6484 42.9974 19.5286 41.4453 20.2734L40.6484 19.0703C41.9974 18.4349 43.1042 17.6953 43.9688 16.8516C44.8385 16.0078 45.4818 15.0651 45.8984 14.0234C46.3151 12.9818 46.5234 11.8307 46.5234 10.5703V10.3281H48ZM47.1641 11.5156H41.3281V10.3281H47.1641V11.5156ZM56.0703 18.3125C57.4089 18.3125 58.5651 18.2812 59.5391 18.2188C60.513 18.151 61.5104 18.0339 62.5312 17.8672L62.6797 19.0781C61.6693 19.2396 60.6693 19.3516 59.6797 19.4141C58.6901 19.4714 57.487 19.5052 56.0703 19.5156H54.9375V18.3125H56.0703ZM61.5312 11.2891H56.4297V18.7031H54.9375V10.0547H61.5312V11.2891ZM61.25 15.1719H56.0625V13.9844H61.25V15.1719ZM65.25 22.8203H63.7734V8.82031H65.25V22.8203ZM67.5078 15.6016H64.9141V14.3516H67.5078V15.6016Z" fill="#ED653F"/>
</svg>
