<svg width="87" height="36" viewBox="0 0 87 36" fill="none" xmlns="http://www.w3.org/2000/svg">
<rect width="87" height="36" rx="18" fill="#FFF2E3"/>
<circle cx="22" cy="18" r="2.30769" fill="#ED653F"/>
<circle cx="14.3077" cy="18" r="2.30769" fill="#ED653F"/>
<circle cx="29.6923" cy="18" r="2.30769" fill="#ED653F"/>
<path d="M55.1953 26.6504H53.3203V9.15039H55.1953V26.6504ZM50 11.0352C50 12.819 49.7233 14.4694 49.1699 15.9863C48.623 17.4967 47.7441 18.89 46.5332 20.166C45.3223 21.4355 43.7467 22.5358 41.8066 23.4668L40.8105 21.9629C42.4967 21.1686 43.8802 20.2441 44.9609 19.1895C46.0482 18.1348 46.8522 16.9564 47.373 15.6543C47.8939 14.3522 48.1543 12.9134 48.1543 11.3379V11.0352H50ZM48.9551 12.5195H41.6602V11.0352H48.9551V12.5195ZM60.0879 21.0156C61.7611 21.0156 63.2064 20.9766 64.4238 20.8984C65.6413 20.8138 66.888 20.6673 68.1641 20.459L68.3496 21.9727C67.0866 22.1745 65.8366 22.3145 64.5996 22.3926C63.3626 22.4642 61.8587 22.5065 60.0879 22.5195H58.6719V21.0156H60.0879ZM66.9141 12.2363H60.5371V21.5039H58.6719V10.6934H66.9141V12.2363ZM66.5625 17.0898H60.0781V15.6055H66.5625V17.0898ZM71.5625 26.6504H69.7168V9.15039H71.5625V26.6504ZM74.3848 17.627H71.1426V16.0645H74.3848V17.627Z" fill="#ED653F"/>
</svg>
