<svg width="65" height="23" viewBox="0 0 65 23" fill="none" xmlns="http://www.w3.org/2000/svg">
<rect width="65" height="23" rx="11.5" fill="#ED653F"/>
<circle cx="16" cy="11.5" r="2" fill="#FFF7EF"/>
<circle cx="10" cy="11.5" r="2" fill="#FFF7EF"/>
<circle cx="22" cy="11.5" r="2" fill="#FFF7EF"/>
<path d="M42.6367 17.6553H41.3242V5.40527H42.6367V17.6553ZM39 6.72461C39 7.97331 38.8063 9.12858 38.4189 10.1904C38.0361 11.2477 37.4209 12.223 36.5732 13.1162C35.7256 14.0049 34.6227 14.7751 33.2646 15.4268L32.5674 14.374C33.7477 13.818 34.7161 13.1709 35.4727 12.4326C36.2337 11.6943 36.7965 10.8695 37.1611 9.95801C37.5257 9.04655 37.708 8.03939 37.708 6.93652V6.72461H39ZM38.2686 7.76367H33.1621V6.72461H38.2686V7.76367ZM46.0615 13.7109C47.2327 13.7109 48.2445 13.6836 49.0967 13.6289C49.9489 13.5697 50.8216 13.4671 51.7148 13.3213L51.8447 14.3809C50.9606 14.5221 50.0856 14.6201 49.2197 14.6748C48.3538 14.7249 47.3011 14.7546 46.0615 14.7637H45.0703V13.7109H46.0615ZM50.8398 7.56543H46.376V14.0527H45.0703V6.48535H50.8398V7.56543ZM50.5938 10.9629H46.0547V9.92383H50.5938V10.9629ZM54.0938 17.6553H52.8018V5.40527H54.0938V17.6553ZM56.0693 11.3389H53.7998V10.2451H56.0693V11.3389Z" fill="#FFF7EF"/>
</svg>
