<svg width="103" height="36" viewBox="0 0 103 36" fill="none" xmlns="http://www.w3.org/2000/svg">
<rect x="1" y="1" width="101" height="34" rx="17" fill="#ED653F"/>
<rect x="1" y="1" width="101" height="34" rx="17" stroke="#FFF2E3" stroke-width="2"/>
<path fill-rule="evenodd" clip-rule="evenodd" d="M26.6461 9.92074L22.2922 17.812L31 17.812L29.5487 15.1815L26.646 15.1815L28.0973 12.551L26.6461 9.92074Z" fill="#FFF2E3"/>
<path d="M12.496 23.7304C11.4548 21.8432 12.1062 19.4098 13.951 18.2953L20.332 14.4401C22.1768 13.3256 24.5164 13.9519 25.5576 15.8391C26.5988 17.7263 25.9474 20.1596 24.1026 21.2742L17.7216 25.1293C15.8768 26.2439 13.5372 25.6176 12.496 23.7304Z" fill="#FFF2E3"/>
<ellipse cx="13.7467" cy="15.5576" rx="1.25686" ry="1.31522" fill="#FFF2E3"/>
<ellipse cx="16.2605" cy="11.6119" rx="1.25686" ry="1.31522" fill="#FFF2E3"/>
<path d="M22.0448 23.4489C22.0448 24.6472 21.1221 25.5794 20.0311 25.5794C18.9401 25.5794 18.0174 24.6472 18.0174 23.4489C18.0174 22.2507 18.9401 21.3185 20.0311 21.3185C21.1221 21.3185 22.0448 22.2507 22.0448 23.4489Z" fill="#FFF2E3" stroke="#FFF7EF"/>
<path d="M50.084 17.5586H41.1484V16.0938H50.084V17.5586ZM49.957 11.709H42.9941V16.416H41.1484V10.2051H49.957V11.709ZM49.5957 14.5508H42.3594V13.1934H49.5957V14.5508ZM46.4219 26.0938H44.5664V19.6973H46.4219V26.0938ZM54.1855 26.6602H52.3496V9.16992H54.1855V26.6602ZM39.5762 19.1797C42.0111 19.1797 44.1335 19.1536 45.9434 19.1016C47.7533 19.043 49.5013 18.9095 51.1875 18.7012L51.2754 20.0879C49.5241 20.3548 47.7305 20.5306 45.8945 20.6152C44.0586 20.6934 42.0273 20.7324 39.8008 20.7324L39.5762 19.1797ZM71.4805 26.6504H69.6055V9.15039H71.4805V26.6504ZM66.2852 11.0352C66.2852 12.819 66.0085 14.4694 65.4551 15.9863C64.9082 17.4967 64.0293 18.89 62.8184 20.166C61.6074 21.4355 60.0319 22.5358 58.0918 23.4668L57.0957 21.9629C58.7819 21.1686 60.1654 20.2441 61.2461 19.1895C62.3333 18.1348 63.1374 16.9564 63.6582 15.6543C64.179 14.3522 64.4395 12.9134 64.4395 11.3379V11.0352H66.2852ZM65.2402 12.5195H57.9453V11.0352H65.2402V12.5195ZM88.7656 26.6504H86.8906V9.15039H88.7656V26.6504ZM83.5703 11.0352C83.5703 12.819 83.2936 14.4694 82.7402 15.9863C82.1934 17.4967 81.3145 18.89 80.1035 20.166C78.8926 21.4355 77.3171 22.5358 75.377 23.4668L74.3809 21.9629C76.0671 21.1686 77.4505 20.2441 78.5312 19.1895C79.6185 18.1348 80.4225 16.9564 80.9434 15.6543C81.4642 14.3522 81.7246 12.9134 81.7246 11.3379V11.0352H83.5703ZM82.5254 12.5195H75.2305V11.0352H82.5254V12.5195Z" fill="#FFF2E3"/>
</svg>
