<svg width="74" height="23" viewBox="0 0 74 23" fill="none" xmlns="http://www.w3.org/2000/svg">
<rect width="74.0008" height="23" rx="11.5" fill="#ED653F"/>
<path fill-rule="evenodd" clip-rule="evenodd" d="M18.0219 6.00008L15.0429 11.3721L21.0009 11.3721L20.0079 9.58131L18.0219 9.58131L19.0149 7.79067L18.0219 6.00008Z" fill="#FFF7EF"/>
<path d="M8.3401 15.401C7.62769 14.1163 8.07083 12.4613 9.32988 11.7045L13.7074 9.07315C14.9665 8.31634 16.5647 8.74427 17.2771 10.029V10.029C17.9895 11.3137 17.5463 12.9686 16.2873 13.7255L11.9098 16.3568C10.6507 17.1136 9.05252 16.6857 8.3401 15.401V15.401Z" fill="#FFF7EF"/>
<ellipse cx="9.1959" cy="9.83729" rx="0.85996" ry="0.895337" fill="#FFF7EF"/>
<ellipse cx="10.916" cy="7.15126" rx="0.85996" ry="0.895337" fill="#FFF7EF"/>
<path d="M14.7157 15.2093C14.7157 15.9413 14.1507 16.5 13.4958 16.5C12.8409 16.5 12.2759 15.9413 12.2759 15.2093C12.2759 14.4773 12.8409 13.9186 13.4958 13.9186C14.1507 13.9186 14.7157 14.4773 14.7157 15.2093Z" fill="#ED653F" stroke="#FFF7EF"/>
<path d="M36.7595 11.291H30.5046V10.2656H36.7595V11.291ZM36.6707 7.19629H31.7966V10.4912H30.5046V6.14355H36.6707V7.19629ZM36.4177 9.18555H31.3523V8.23535H36.4177V9.18555ZM34.196 17.2656H32.8972V12.7881H34.196V17.2656ZM39.6306 17.6621H38.3455V5.41895H39.6306V17.6621ZM29.4041 12.4258C31.1085 12.4258 32.5942 12.4076 33.8611 12.3711C35.128 12.3301 36.3516 12.2367 37.532 12.0908L37.5935 13.0615C36.3676 13.2484 35.1121 13.3714 33.8269 13.4307C32.5417 13.4854 31.1199 13.5127 29.5613 13.5127L29.4041 12.4258ZM51.7371 17.6553H50.4246V5.40527H51.7371V17.6553ZM48.1003 6.72461C48.1003 7.97331 47.9067 9.12858 47.5193 10.1904C47.1365 11.2477 46.5212 12.223 45.6736 13.1162C44.8259 14.0049 43.7231 14.7751 42.365 15.4268L41.6677 14.374C42.8481 13.818 43.8165 13.1709 44.573 12.4326C45.3341 11.6943 45.8969 10.8695 46.2615 9.95801C46.6261 9.04655 46.8083 8.03939 46.8083 6.93652V6.72461H48.1003ZM47.3689 7.76367H42.2625V6.72461H47.3689V7.76367ZM63.8367 17.6553H62.5242V5.40527H63.8367V17.6553ZM60.2 6.72461C60.2 7.97331 60.0063 9.12858 59.6189 10.1904C59.2361 11.2477 58.6208 12.223 57.7732 13.1162C56.9255 14.0049 55.8227 14.7751 54.4646 15.4268L53.7673 14.374C54.9477 13.818 55.9161 13.1709 56.6726 12.4326C57.4337 11.6943 57.9965 10.8695 58.3611 9.95801C58.7257 9.04655 58.908 8.03939 58.908 6.93652V6.72461H60.2ZM59.4685 7.76367H54.3621V6.72461H59.4685V7.76367Z" fill="#FFF7EF"/>
</svg>
