<svg width="93" height="32" viewBox="0 0 93 32" fill="none" xmlns="http://www.w3.org/2000/svg">
<rect x="0.5" y="0.5" width="92" height="31" rx="15.5" fill="#FFC6B5"/>
<rect x="0.5" y="0.5" width="92" height="31" rx="15.5" stroke="#ED653F"/>
<path fill-rule="evenodd" clip-rule="evenodd" d="M26.6461 7.9208L22.2923 15.8121L31 15.8121L29.5487 13.1816L26.646 13.1816L28.0974 10.5511L26.6461 7.9208Z" fill="#ED653F"/>
<path d="M12.496 21.7304C11.4547 19.8432 12.1062 17.4098 13.951 16.2953L20.332 12.4401C22.1768 11.3256 24.5164 11.9519 25.5576 13.8391V13.8391C26.5988 15.7263 25.9474 18.1596 24.1026 19.2742L17.7216 23.1293C15.8768 24.2439 13.5372 23.6176 12.496 21.7304V21.7304Z" fill="#ED653F"/>
<ellipse cx="13.7467" cy="13.5576" rx="1.25686" ry="1.31522" fill="#ED653F"/>
<ellipse cx="16.2605" cy="9.61191" rx="1.25686" ry="1.31522" fill="#ED653F"/>
<path d="M22.0449 21.4489C22.0449 22.6472 21.1222 23.5794 20.0312 23.5794C18.9402 23.5794 18.0175 22.6472 18.0175 21.4489C18.0175 20.2507 18.9402 19.3185 20.0312 19.3185C21.1222 19.3185 22.0449 20.2507 22.0449 21.4489Z" fill="#ED653F" stroke="#F4BBAA"/>
<path d="M47.8672 15.5469H40.7188V14.375H47.8672V15.5469ZM47.7656 10.8672H42.1953V14.6328H40.7188V9.66406H47.7656V10.8672ZM47.4766 13.1406H41.6875V12.0547H47.4766V13.1406ZM44.9375 22.375H43.4531V17.2578H44.9375V22.375ZM51.1484 22.8281H49.6797V8.83594H51.1484V22.8281ZM39.4609 16.8438C41.4089 16.8438 43.1068 16.8229 44.5547 16.7812C46.0026 16.7344 47.401 16.6276 48.75 16.4609L48.8203 17.5703C47.4193 17.7839 45.9844 17.9245 44.5156 17.9922C43.0469 18.0547 41.4219 18.0859 39.6406 18.0859L39.4609 16.8438ZM64.9844 22.8203H63.4844V8.82031H64.9844V22.8203ZM60.8281 10.3281C60.8281 11.7552 60.6068 13.0755 60.1641 14.2891C59.7266 15.4974 59.0234 16.612 58.0547 17.6328C57.0859 18.6484 55.8255 19.5286 54.2734 20.2734L53.4766 19.0703C54.8255 18.4349 55.9323 17.6953 56.7969 16.8516C57.6667 16.0078 58.3099 15.0651 58.7266 14.0234C59.1432 12.9818 59.3516 11.8307 59.3516 10.5703V10.3281H60.8281ZM59.9922 11.5156H54.1562V10.3281H59.9922V11.5156ZM78.8125 22.8203H77.3125V8.82031H78.8125V22.8203ZM74.6562 10.3281C74.6562 11.7552 74.4349 13.0755 73.9922 14.2891C73.5547 15.4974 72.8516 16.612 71.8828 17.6328C70.9141 18.6484 69.6536 19.5286 68.1016 20.2734L67.3047 19.0703C68.6536 18.4349 69.7604 17.6953 70.625 16.8516C71.4948 16.0078 72.138 15.0651 72.5547 14.0234C72.9714 12.9818 73.1797 11.8307 73.1797 10.5703V10.3281H74.6562ZM73.8203 11.5156H67.9844V10.3281H73.8203V11.5156Z" fill="#ED653F"/>
</svg>
