<svg width="80" height="32" viewBox="0 0 80 32" fill="none" xmlns="http://www.w3.org/2000/svg">
<rect x="0.5" y="0.5" width="79" height="31" rx="15.5" fill="#FFC6B5"/>
<rect x="0.5" y="0.5" width="79" height="31" rx="15.5" stroke="#ED653F"/>
<path fill-rule="evenodd" clip-rule="evenodd" d="M19.3299 8.7716C19.3299 8.67028 19.3065 8.56994 19.2611 8.47632C19.2157 8.38271 19.1492 8.29765 19.0652 8.226C18.9813 8.15435 18.8817 8.09751 18.7721 8.05873C18.6625 8.01996 18.545 8 18.4263 8C18.3077 8 18.1902 8.01996 18.0806 8.05873C17.9709 8.09751 17.8713 8.15435 17.7874 8.226C17.7035 8.29765 17.637 8.38271 17.5916 8.47632C17.5462 8.56994 17.5228 8.67028 17.5228 8.7716V10.7012C17.5228 10.8026 17.5462 10.9029 17.5916 10.9965C17.637 11.0901 17.7035 11.1752 17.7874 11.2468C17.8713 11.3185 17.9709 11.3753 18.0806 11.4141C18.1902 11.4529 18.3077 11.4728 18.4263 11.4728C18.545 11.4728 18.6625 11.4529 18.7721 11.4141C18.8817 11.3753 18.9813 11.3185 19.0652 11.2468C19.1492 11.1752 19.2157 11.0901 19.2611 10.9965C19.3065 10.9029 19.3299 10.8026 19.3299 10.7012V8.7716ZM15.1273 9.4358C15.6275 9.4358 16.0308 9.78148 16.0308 10.2074V12.137C16.0308 12.3417 15.9356 12.5379 15.7662 12.6826C15.5967 12.8273 15.3669 12.9086 15.1273 12.9086C14.8877 12.9086 14.6578 12.8273 14.4884 12.6826C14.3189 12.5379 14.2237 12.3417 14.2237 12.137V10.2074C14.2237 9.78148 14.6285 9.4358 15.1273 9.4358ZM21.7239 9.4358C22.2227 9.4358 22.6275 9.78148 22.6275 10.2074V12.137C22.6275 12.3417 22.5323 12.5379 22.3629 12.6826C22.1934 12.8273 21.9636 12.9086 21.7239 12.9086C21.4843 12.9086 21.2545 12.8273 21.085 12.6826C20.9156 12.5379 20.8204 12.3417 20.8204 12.137V10.2074C20.8204 9.78148 21.2252 9.4358 21.7239 9.4358ZM29.9036 11.3198C29.5631 11.3195 29.2275 11.3899 28.9258 11.5248C28.6242 11.6598 28.3654 11.8553 28.1717 12.0945C27.978 12.3337 27.8553 12.6095 27.814 12.8982C27.7727 13.1869 27.8141 13.4798 27.9346 13.7519L26.3776 14.979C25.4957 14.6481 24.4288 14.7012 23.4689 15.1062C23.1099 15.2866 22.7853 15.5126 22.5061 15.7765C21.283 16.9235 21.2035 18.4309 22.0015 19.3148C22.0839 19.4049 22.175 19.4914 22.2776 19.5704C22.3479 19.6249 22.4049 19.6908 22.4453 19.7641C22.4858 19.8375 22.5089 19.9169 22.5134 19.9979C22.5179 20.0789 22.5037 20.1599 22.4715 20.2362C22.4394 20.3125 22.39 20.3826 22.3261 20.4426C22.2622 20.5026 22.1851 20.5512 22.0992 20.5858C22.0133 20.6203 21.9203 20.6401 21.8254 20.6439C21.7306 20.6478 21.6358 20.6356 21.5464 20.6082C21.4571 20.5807 21.3749 20.5385 21.3047 20.484C21.1419 20.3571 20.9925 20.2183 20.858 20.0691C19.5395 18.6123 19.8503 16.4346 21.4363 14.9457L21.4767 14.9086C18.4798 14.1494 14.5765 15.0494 12.8532 17.9852C11.5261 20.2494 12.0292 22.1025 12.4889 23.0481C12.807 23.7049 13.5631 24 14.2526 24H29.1475C29.7227 24 30.2742 23.8049 30.6809 23.4576C31.0876 23.1103 31.3161 22.6393 31.3161 22.1481V21.7815C31.3161 20.9469 31.1556 20.158 30.6467 19.4481C30.2593 18.9062 29.6969 18.4494 28.9408 18.0568C28.7053 18.7244 28.2972 19.3382 27.7467 19.8531C27.6176 19.9742 27.4376 20.0467 27.246 20.0544C27.0545 20.0622 26.8672 20.0046 26.7253 19.8944C26.5834 19.7843 26.4986 19.6305 26.4895 19.4669C26.4805 19.3033 26.5478 19.1434 26.6769 19.0222C27.6397 18.1198 27.8927 17.0062 27.5732 16.137L29.1851 14.8642C29.2021 14.8507 29.2185 14.8367 29.2343 14.8222C29.5232 14.9041 29.8294 14.9314 30.1319 14.9023C30.4343 14.8732 30.7258 14.7884 30.9861 14.6538C31.2465 14.5192 31.4695 14.3379 31.6398 14.1225C31.8101 13.907 31.9237 13.6626 31.9726 13.4061C32.0216 13.1496 32.0047 12.887 31.9233 12.6366C31.8418 12.3861 31.6977 12.1538 31.5009 11.9555C31.304 11.7573 31.0591 11.5979 30.7831 11.4883C30.5071 11.3788 30.2065 11.3217 29.9022 11.321L29.9036 11.3198Z" fill="#ED653F"/>
<path d="M51.1484 10.5859H42.1094V9.39062H51.1484V10.5859ZM53.3281 15.4219H40.5156V14.2188H53.3281V15.4219ZM47.6016 17.7266H46.1172V14.7891H47.6016V17.7266ZM51.6953 10.5625C51.6953 11.3333 51.6667 12.0469 51.6094 12.7031C51.5521 13.3594 51.4219 14.0885 51.2188 14.8906L49.7734 14.7109C49.9661 13.9245 50.0885 13.224 50.1406 12.6094C50.1927 11.9948 50.2188 11.3229 50.2188 10.5938V10.4297V9.39062H51.6953V10.4375V10.5625ZM43.5859 18.6094H50.1797V16.9375H51.6641V22.6406H42.1172V16.9375H43.5859V18.6094ZM50.1797 21.4531V19.7812H43.5859V21.4531H50.1797ZM65.9844 22.8203H64.4844V8.82031H65.9844V22.8203ZM61.8281 10.3281C61.8281 11.7552 61.6068 13.0755 61.1641 14.2891C60.7266 15.4974 60.0234 16.612 59.0547 17.6328C58.0859 18.6484 56.8255 19.5286 55.2734 20.2734L54.4766 19.0703C55.8255 18.4349 56.9323 17.6953 57.7969 16.8516C58.6667 16.0078 59.3099 15.0651 59.7266 14.0234C60.1432 12.9818 60.3516 11.8307 60.3516 10.5703V10.3281H61.8281ZM60.9922 11.5156H55.1562V10.3281H60.9922V11.5156Z" fill="#ED653F"/>
</svg>
