<svg width="87" height="36" viewBox="0 0 87 36" fill="none" xmlns="http://www.w3.org/2000/svg">
<rect x="1" y="1" width="85" height="34" rx="17" fill="#ED653F"/>
<rect x="1" y="1" width="85" height="34" rx="17" stroke="#FFF2E3" stroke-width="2"/>
<path fill-rule="evenodd" clip-rule="evenodd" d="M19.3299 10.7716C19.3299 10.6703 19.3065 10.5699 19.2611 10.4763C19.2157 10.3827 19.1492 10.2976 19.0652 10.226C18.9813 10.1543 18.8817 10.0975 18.7721 10.0587C18.6625 10.02 18.545 10 18.4263 10C18.3077 10 18.1902 10.02 18.0806 10.0587C17.9709 10.0975 17.8713 10.1543 17.7874 10.226C17.7035 10.2976 17.637 10.3827 17.5916 10.4763C17.5462 10.5699 17.5228 10.6703 17.5228 10.7716V12.7012C17.5228 12.8026 17.5462 12.9029 17.5916 12.9965C17.637 13.0901 17.7035 13.1752 17.7874 13.2468C17.8713 13.3185 17.9709 13.3753 18.0806 13.4141C18.1902 13.4529 18.3077 13.4728 18.4263 13.4728C18.545 13.4728 18.6625 13.4529 18.7721 13.4141C18.8817 13.3753 18.9813 13.3185 19.0652 13.2468C19.1492 13.1752 19.2157 13.0901 19.2611 12.9965C19.3065 12.9029 19.3299 12.8026 19.3299 12.7012V10.7716ZM15.1273 11.4358C15.6275 11.4358 16.0308 11.7815 16.0308 12.2074V14.137C16.0308 14.3417 15.9356 14.5379 15.7662 14.6826C15.5967 14.8273 15.3669 14.9086 15.1273 14.9086C14.8877 14.9086 14.6578 14.8273 14.4884 14.6826C14.3189 14.5379 14.2237 14.3417 14.2237 14.137V12.2074C14.2237 11.7815 14.6285 11.4358 15.1273 11.4358ZM21.7239 11.4358C22.2227 11.4358 22.6275 11.7815 22.6275 12.2074V14.137C22.6275 14.3417 22.5323 14.5379 22.3629 14.6826C22.1934 14.8273 21.9636 14.9086 21.7239 14.9086C21.4843 14.9086 21.2545 14.8273 21.085 14.6826C20.9156 14.5379 20.8204 14.3417 20.8204 14.137V12.2074C20.8204 11.7815 21.2252 11.4358 21.7239 11.4358ZM29.9036 13.3198C29.5631 13.3195 29.2275 13.3899 28.9258 13.5248C28.6242 13.6598 28.3654 13.8553 28.1717 14.0945C27.978 14.3337 27.8553 14.6095 27.814 14.8982C27.7727 15.1869 27.8141 15.4798 27.9346 15.7519L26.3776 16.979C25.4957 16.6481 24.4288 16.7012 23.4689 17.1062C23.1099 17.2866 22.7853 17.5126 22.5061 17.7765C21.283 18.9235 21.2035 20.4309 22.0015 21.3148C22.0839 21.4049 22.175 21.4914 22.2776 21.5704C22.3479 21.6249 22.4049 21.6908 22.4453 21.7641C22.4858 21.8375 22.5089 21.9169 22.5134 21.9979C22.5179 22.0789 22.5037 22.1599 22.4715 22.2362C22.4394 22.3125 22.39 22.3826 22.3261 22.4426C22.2622 22.5026 22.1851 22.5512 22.0992 22.5858C22.0133 22.6203 21.9203 22.6401 21.8254 22.6439C21.7306 22.6478 21.6358 22.6356 21.5464 22.6082C21.4571 22.5807 21.3749 22.5385 21.3047 22.484C21.1419 22.3571 20.9925 22.2183 20.858 22.0691C19.5395 20.6123 19.8503 18.4346 21.4363 16.9457L21.4767 16.9086C18.4798 16.1494 14.5765 17.0494 12.8532 19.9852C11.5261 22.2494 12.0292 24.1025 12.4889 25.0481C12.807 25.7049 13.5631 26 14.2527 26H29.1475C29.7227 26 30.2742 25.8049 30.6809 25.4576C31.0876 25.1103 31.3161 24.6393 31.3161 24.1481V23.7815C31.3161 22.9469 31.1556 22.158 30.6467 21.4481C30.2593 20.9062 29.6969 20.4494 28.9408 20.0568C28.7053 20.7244 28.2972 21.3382 27.7467 21.8531C27.6176 21.9742 27.4376 22.0467 27.246 22.0544C27.0545 22.0622 26.8672 22.0046 26.7253 21.8944C26.5834 21.7843 26.4986 21.6305 26.4895 21.4669C26.4805 21.3033 26.5478 21.1434 26.6769 21.0222C27.6397 20.1198 27.8927 19.0062 27.5732 18.137L29.1851 16.8642C29.2021 16.8507 29.2185 16.8367 29.2343 16.8222C29.5232 16.9041 29.8294 16.9314 30.1319 16.9023C30.4343 16.8732 30.7258 16.7884 30.9861 16.6538C31.2465 16.5192 31.4695 16.3379 31.6398 16.1225C31.8101 15.907 31.9237 15.6626 31.9726 15.4061C32.0216 15.1496 32.0047 14.887 31.9233 14.6366C31.8418 14.3861 31.6977 14.1538 31.5009 13.9555C31.304 13.7573 31.0591 13.5979 30.7831 13.4883C30.5071 13.3788 30.2065 13.3217 29.9022 13.321L29.9036 13.3198Z" fill="#FFF2E3"/>
<path d="M53.9355 11.3574H42.6367V9.86328H53.9355V11.3574ZM56.6602 17.4023H40.6445V15.8984H56.6602V17.4023ZM49.502 20.2832H47.6465V16.6113H49.502V20.2832ZM54.6191 11.3281C54.6191 12.2917 54.5833 13.1836 54.5117 14.0039C54.4401 14.8242 54.2773 15.7357 54.0234 16.7383L52.2168 16.5137C52.4577 15.5306 52.6107 14.6549 52.6758 13.8867C52.7409 13.1185 52.7734 12.2786 52.7734 11.3672V11.1621V9.86328H54.6191V11.1719V11.3281ZM44.4824 21.3867H52.7246V19.2969H54.5801V26.4258H42.6465V19.2969H44.4824V21.3867ZM52.7246 24.9414V22.8516H44.4824V24.9414H52.7246ZM72.4805 26.6504H70.6055V9.15039H72.4805V26.6504ZM67.2852 11.0352C67.2852 12.819 67.0085 14.4694 66.4551 15.9863C65.9082 17.4967 65.0293 18.89 63.8184 20.166C62.6074 21.4355 61.0319 22.5358 59.0918 23.4668L58.0957 21.9629C59.7819 21.1686 61.1654 20.2441 62.2461 19.1895C63.3333 18.1348 64.1374 16.9564 64.6582 15.6543C65.179 14.3522 65.4395 12.9134 65.4395 11.3379V11.0352H67.2852ZM66.2402 12.5195H58.9453V11.0352H66.2402V12.5195Z" fill="#FFF2E3"/>
</svg>
