<svg width="63" height="23" viewBox="0 0 63 23" fill="none" xmlns="http://www.w3.org/2000/svg">
<rect width="63" height="23" rx="11.5" fill="#ED653F"/>
<path fill-rule="evenodd" clip-rule="evenodd" d="M13.1309 6.53048C13.1309 6.46082 13.1146 6.39183 13.0828 6.32747C13.051 6.26311 13.0044 6.20463 12.9457 6.15537C12.8869 6.10611 12.8172 6.06704 12.7405 6.04038C12.6637 6.01372 12.5815 6 12.4984 6C12.4154 6 12.3331 6.01372 12.2564 6.04038C12.1797 6.06704 12.1099 6.10611 12.0512 6.15537C11.9925 6.20463 11.9459 6.26311 11.9141 6.32747C11.8823 6.39183 11.866 6.46082 11.866 6.53048V7.8571C11.866 7.92676 11.8823 7.99574 11.9141 8.0601C11.9459 8.12446 11.9925 8.18294 12.0512 8.2322C12.1099 8.28146 12.1797 8.32054 12.2564 8.3472C12.3331 8.37386 12.4154 8.38758 12.4984 8.38758C12.5815 8.38758 12.6637 8.37386 12.7405 8.3472C12.8172 8.32054 12.8869 8.28146 12.9457 8.2322C13.0044 8.18294 13.051 8.12446 13.0828 8.0601C13.1146 7.99574 13.1309 7.92676 13.1309 7.8571V6.53048ZM10.1891 6.98711C10.5392 6.98711 10.8216 7.22477 10.8216 7.51759V8.84421C10.8216 8.9849 10.755 9.11983 10.6363 9.21932C10.5177 9.3188 10.3568 9.37469 10.1891 9.37469C10.0214 9.37469 9.86048 9.3188 9.74187 9.21932C9.62325 9.11983 9.55662 8.9849 9.55662 8.84421V7.51759C9.55662 7.22477 9.83997 6.98711 10.1891 6.98711ZM14.8068 6.98711C15.1559 6.98711 15.4392 7.22477 15.4392 7.51759V8.84421C15.4392 8.9849 15.3726 9.11983 15.254 9.21932C15.1354 9.3188 14.9745 9.37469 14.8068 9.37469C14.639 9.37469 14.4781 9.3188 14.3595 9.21932C14.2409 9.11983 14.1743 8.9849 14.1743 8.84421V7.51759C14.1743 7.22477 14.4576 6.98711 14.8068 6.98711ZM20.5325 8.28233C20.2941 8.28217 20.0593 8.33055 19.8481 8.42333C19.6369 8.51611 19.4558 8.65051 19.3202 8.81498C19.1846 8.97945 19.0987 9.16906 19.0698 9.36753C19.0409 9.56601 19.0698 9.7674 19.1542 9.9544L18.0643 10.7981C17.447 10.5706 16.7002 10.6071 16.0282 10.8855C15.7769 11.0095 15.5497 11.1649 15.3542 11.3464C14.4981 12.1349 14.4424 13.1712 15.0011 13.7789C15.0587 13.8409 15.1225 13.9003 15.1943 13.9546C15.2435 13.9921 15.2834 14.0374 15.3117 14.0878C15.34 14.1383 15.3562 14.1929 15.3594 14.2486C15.3625 14.3043 15.3526 14.3599 15.3301 14.4124C15.3076 14.4648 15.273 14.513 15.2283 14.5543C15.1835 14.5955 15.1296 14.629 15.0694 14.6527C15.0093 14.6765 14.9442 14.6901 14.8778 14.6927C14.8114 14.6953 14.745 14.687 14.6825 14.6681C14.62 14.6492 14.5625 14.6202 14.5133 14.5827C14.3993 14.4955 14.2947 14.4001 14.2006 14.2975C13.2777 13.296 13.4952 11.7988 14.6054 10.7752L14.6337 10.7497C12.5359 10.2277 9.80354 10.8465 8.59726 12.8648C7.66826 14.4215 8.02043 15.6954 8.34224 16.3456C8.56488 16.7971 9.09414 17 9.57685 17H20.0033C20.4059 17 20.792 16.8659 21.0766 16.6271C21.3613 16.3883 21.5212 16.0645 21.5212 15.7269V15.4748C21.5212 14.901 21.4089 14.3586 21.0527 13.8706C20.7815 13.498 20.3878 13.184 19.8586 12.914C19.6937 13.373 19.408 13.795 19.0227 14.149C18.9324 14.2323 18.8063 14.2821 18.6722 14.2874C18.5381 14.2927 18.407 14.2532 18.3077 14.1774C18.2084 14.1017 18.149 13.996 18.1427 13.8835C18.1363 13.771 18.1835 13.6611 18.2738 13.5778C18.9478 12.9573 19.1249 12.1917 18.9012 11.5942L20.0296 10.7191C20.0415 10.7099 20.0529 10.7002 20.064 10.6903C20.2662 10.7465 20.4806 10.7653 20.6923 10.7453C20.904 10.7253 21.108 10.667 21.2903 10.5745C21.4725 10.4819 21.6287 10.3573 21.7479 10.2092C21.8671 10.0611 21.9466 9.89306 21.9808 9.71669C22.0151 9.54032 22.0033 9.35982 21.9463 9.18764C21.8893 9.01546 21.7884 8.85572 21.6506 8.71943C21.5128 8.58313 21.3414 8.47355 21.1482 8.39823C20.955 8.32291 20.7446 8.28366 20.5315 8.28318L20.5325 8.28233Z" fill="#FFF7EF"/>
<path d="M39.7549 6.9502H31.8457V5.9043H39.7549V6.9502ZM41.6621 11.1816H30.4512V10.1289H41.6621V11.1816ZM36.6514 13.1982H35.3525V10.6279H36.6514V13.1982ZM40.2334 6.92969C40.2334 7.60417 40.2083 8.22852 40.1582 8.80273C40.1081 9.37695 39.9941 10.015 39.8164 10.7168L38.5518 10.5596C38.7204 9.87142 38.8275 9.25846 38.873 8.7207C38.9186 8.18294 38.9414 7.59505 38.9414 6.95703V6.81348V5.9043H40.2334V6.82031V6.92969ZM33.1377 13.9707H38.9072V12.5078H40.2061V17.498H31.8525V12.5078H33.1377V13.9707ZM38.9072 16.459V14.9961H33.1377V16.459H38.9072ZM52.7363 17.6553H51.4238V5.40527H52.7363V17.6553ZM49.0996 6.72461C49.0996 7.97331 48.9059 9.12858 48.5186 10.1904C48.1357 11.2477 47.5205 12.223 46.6729 13.1162C45.8252 14.0049 44.7223 14.7751 43.3643 15.4268L42.667 14.374C43.8473 13.818 44.8158 13.1709 45.5723 12.4326C46.3333 11.6943 46.8962 10.8695 47.2607 9.95801C47.6253 9.04655 47.8076 8.03939 47.8076 6.93652V6.72461H49.0996ZM48.3682 7.76367H43.2617V6.72461H48.3682V7.76367Z" fill="#FFF7EF"/>
</svg>
