<svg width="80" height="32" viewBox="0 0 80 32" fill="none" xmlns="http://www.w3.org/2000/svg">
<rect x="0.5" y="0.5" width="79" height="31" rx="15.5" fill="#FFC6B5"/>
<rect x="0.5" y="0.5" width="79" height="31" rx="15.5" stroke="#ED653F"/>
<path d="M19.7275 9.11905C15.4548 9.11905 12.0003 11.3048 12.0003 13.9762C12.0003 14.9476 12.4548 15.8381 13.273 16.6476C12.4548 17.619 11.9867 18.8333 12.0003 20.0476V22.881C12.0003 23.7714 12.8185 24.5 13.8184 24.5H25.6365C26.6455 24.5 27.4546 23.7795 27.4546 22.881V20.0476C27.4546 19.0762 27.1819 18.1048 26.5455 17.2143L28.3637 15.5952L25.6365 13.1667L23.7274 14.8667C22.4214 14.2336 20.9493 13.9223 19.4631 13.965C17.9769 14.0077 16.5304 14.4028 15.273 15.1095C14.9275 14.81 14.7275 14.4052 14.7275 13.9762C14.7275 12.519 17.0002 11.3048 19.7275 11.3048C21.0002 11.3048 22.2729 11.6286 23.1819 12.1143L25.0001 10.4952C23.4428 9.56561 21.6019 9.08515 19.7275 9.11905ZM19.7275 15.5952C22.9092 15.5952 25.6365 18.0238 25.6365 20.0476V22.881H13.8184V20.0476C13.8184 18.0238 16.5457 15.5952 19.7275 15.5952ZM20.182 16.8095C17.4548 16.8095 15.6366 18.0238 15.6366 20.4524V21.2619H17.4548V20.4524C17.4548 19.6429 17.4548 17.619 20.182 16.8095ZM32 12.6C32 13.9195 31.0091 15.2714 29.6182 15.571L29.0091 15.0205L28.3637 14.4619H29.0455C29.9546 14.4619 30.6364 13.3448 30.6364 12.519C30.6364 11.6933 29.8637 10.8514 28.9546 10.8514V9.63714C30.6364 9.63714 32 11.1024 32 12.6ZM27.1364 12.1386C26.5728 11.6448 26.2274 10.9648 26.2274 10.2119C26.2274 8.71429 27.591 7.5 29.2728 7.5V8.71429C28.3637 8.71429 27.591 9.38619 27.591 10.2119C27.591 11.0376 28.3637 11.7095 29.2728 11.7095V12.9238C28.5273 12.9238 27.8364 13.1262 27.2637 13.4743L26.291 12.6081C26.5455 12.43 26.8364 12.2681 27.1364 12.1386Z" fill="#ED653F"/>
<path d="M52.3438 22.8203H50.8516V8.82031H52.3438V22.8203ZM43.6484 12.8047C43.6484 13.7474 43.5781 14.6641 43.4375 15.5547C43.3021 16.4453 43.0599 17.2734 42.7109 18.0391C42.3672 18.8047 41.9062 19.4193 41.3281 19.8828L40.3672 18.7891C40.9193 18.362 41.3568 17.8203 41.6797 17.1641C42.0078 16.5026 42.2344 15.8047 42.3594 15.0703C42.4844 14.3359 42.5469 13.5807 42.5469 12.8047V10.9609H43.6484V12.8047ZM43.9531 12.8047C43.9531 13.5495 44.013 14.2969 44.1328 15.0469C44.2578 15.7969 44.4792 16.5156 44.7969 17.2031C45.1146 17.8906 45.5521 18.4583 46.1094 18.9062L45.2969 20.0234C44.6771 19.5547 44.1875 18.9193 43.8281 18.1172C43.4688 17.3099 43.2188 16.4505 43.0781 15.5391C42.9427 14.6276 42.875 13.7161 42.875 12.8047V10.9609H43.9531V12.8047ZM47.7344 12.8047C47.7344 13.7578 47.6641 14.6875 47.5234 15.5938C47.3828 16.4948 47.1302 17.3438 46.7656 18.1406C46.4062 18.9323 45.9167 19.5599 45.2969 20.0234L44.4688 18.9062C45.0365 18.4688 45.4818 17.9115 45.8047 17.2344C46.1328 16.5521 46.3594 15.8359 46.4844 15.0859C46.6094 14.3359 46.6719 13.5755 46.6719 12.8047V10.9609H47.7344V12.8047ZM48.0781 12.8047C48.0781 13.5964 48.1406 14.362 48.2656 15.1016C48.3906 15.8411 48.612 16.5365 48.9297 17.1875C49.2526 17.8385 49.6823 18.3724 50.2188 18.7891L49.2969 19.8828C48.7188 19.4297 48.2578 18.8229 47.9141 18.0625C47.5755 17.2969 47.3333 16.4714 47.1875 15.5859C47.0469 14.7005 46.9766 13.7734 46.9766 12.8047V10.9609H48.0781V12.8047ZM44.9844 11.3984H40.8672V10.1797H44.9844V11.3984ZM49.5859 11.3984H45.6328V10.1797H49.5859V11.3984ZM65.9844 22.8203H64.4844V8.82031H65.9844V22.8203ZM61.8281 10.3281C61.8281 11.7552 61.6068 13.0755 61.1641 14.2891C60.7266 15.4974 60.0234 16.612 59.0547 17.6328C58.0859 18.6484 56.8255 19.5286 55.2734 20.2734L54.4766 19.0703C55.8255 18.4349 56.9323 17.6953 57.7969 16.8516C58.6667 16.0078 59.3099 15.0651 59.7266 14.0234C60.1432 12.9818 60.3516 11.8307 60.3516 10.5703V10.3281H61.8281ZM60.9922 11.5156H55.1562V10.3281H60.9922V11.5156Z" fill="#ED653F"/>
</svg>
