<svg width="86" height="36" viewBox="0 0 86 36" fill="none" xmlns="http://www.w3.org/2000/svg">
<rect x="1" y="1" width="84" height="34" rx="17" fill="#ED653F"/>
<rect x="1" y="1" width="84" height="34" rx="17" stroke="#FFF2E3" stroke-width="2"/>
<path d="M19.3411 10.7143C15.282 10.7143 12.0003 13.0286 12.0003 15.8571C12.0003 16.8857 12.4321 17.8286 13.2093 18.6857C12.4321 19.7143 11.9873 21 12.0003 22.2857V25.2857C12.0003 26.2286 12.7775 27 13.7275 27H24.9546C25.9133 27 26.6819 26.2371 26.6819 25.2857V22.2857C26.6819 21.2571 26.4228 20.2286 25.8183 19.2857L27.5455 17.5714L24.9546 15L23.141 16.8C21.9003 16.1297 20.5019 15.8001 19.09 15.8453C17.6781 15.8905 16.3039 16.3088 15.1093 17.0571C14.7811 16.74 14.5911 16.3114 14.5911 15.8571C14.5911 14.3143 16.7502 13.0286 19.3411 13.0286C20.5502 13.0286 21.7592 13.3714 22.6228 13.8857L24.3501 12.1714C22.8706 11.1871 21.1218 10.6784 19.3411 10.7143ZM19.3411 17.5714C22.3638 17.5714 24.9546 20.1429 24.9546 22.2857V25.2857H13.7275V22.2857C13.7275 20.1429 16.3184 17.5714 19.3411 17.5714ZM19.7729 18.8571C17.182 18.8571 15.4548 20.1429 15.4548 22.7143V23.5714H17.182V22.7143C17.182 21.8571 17.182 19.7143 19.7729 18.8571ZM31 14.4C31 15.7971 30.0586 17.2286 28.7373 17.5457L28.1587 16.9629L27.5455 16.3714H28.1932C29.0568 16.3714 29.7046 15.1886 29.7046 14.3143C29.7046 13.44 28.9705 12.5486 28.1069 12.5486V11.2629C29.7046 11.2629 31 12.8143 31 14.4ZM26.3796 13.9114C25.8442 13.3886 25.516 12.6686 25.516 11.8714C25.516 10.2857 26.8114 9 28.4091 9V10.2857C27.5455 10.2857 26.8114 10.9971 26.8114 11.8714C26.8114 12.7457 27.5455 13.4571 28.4091 13.4571V14.7429C27.701 14.7429 27.0446 14.9571 26.5005 15.3257L25.5764 14.4086C25.8183 14.22 26.0946 14.0486 26.3796 13.9114Z" fill="#FFF2E3"/>
<path d="M54.4297 26.6504H52.5645V9.15039H54.4297V26.6504ZM43.5605 14.1309C43.5605 15.3092 43.4727 16.4551 43.2969 17.5684C43.1276 18.6816 42.8249 19.7168 42.3887 20.6738C41.959 21.6309 41.3828 22.3991 40.6602 22.9785L39.459 21.6113C40.1491 21.0775 40.696 20.4004 41.0996 19.5801C41.5098 18.7533 41.793 17.8809 41.9492 16.9629C42.1055 16.0449 42.1836 15.1009 42.1836 14.1309V11.8262H43.5605V14.1309ZM43.9414 14.1309C43.9414 15.0618 44.0163 15.9961 44.166 16.9336C44.3223 17.8711 44.599 18.7695 44.9961 19.6289C45.3932 20.4883 45.9401 21.1979 46.6367 21.7578L45.6211 23.1543C44.8464 22.5684 44.2344 21.7741 43.7852 20.7715C43.3359 19.7624 43.0234 18.6882 42.8477 17.5488C42.6784 16.4095 42.5938 15.2702 42.5938 14.1309V11.8262H43.9414V14.1309ZM48.668 14.1309C48.668 15.3223 48.5801 16.4844 48.4043 17.6172C48.2285 18.7435 47.9128 19.8047 47.457 20.8008C47.0078 21.7904 46.3958 22.5749 45.6211 23.1543L44.5859 21.7578C45.2956 21.2109 45.8522 20.5143 46.2559 19.668C46.666 18.8151 46.9492 17.9199 47.1055 16.9824C47.2617 16.0449 47.3398 15.0944 47.3398 14.1309V11.8262H48.668V14.1309ZM49.0977 14.1309C49.0977 15.1204 49.1758 16.0775 49.332 17.002C49.4883 17.9264 49.765 18.7956 50.1621 19.6094C50.5658 20.4232 51.1029 21.0905 51.7734 21.6113L50.6211 22.9785C49.8984 22.4121 49.3223 21.6536 48.8926 20.7031C48.4694 19.7461 48.1667 18.7142 47.9844 17.6074C47.8086 16.5007 47.7207 15.3418 47.7207 14.1309V11.8262H49.0977V14.1309ZM45.2305 12.373H40.084V10.8496H45.2305V12.373ZM50.9824 12.373H46.041V10.8496H50.9824V12.373ZM71.4805 26.6504H69.6055V9.15039H71.4805V26.6504ZM66.2852 11.0352C66.2852 12.819 66.0085 14.4694 65.4551 15.9863C64.9082 17.4967 64.0293 18.89 62.8184 20.166C61.6074 21.4355 60.0319 22.5358 58.0918 23.4668L57.0957 21.9629C58.7819 21.1686 60.1654 20.2441 61.2461 19.1895C62.3333 18.1348 63.1374 16.9564 63.6582 15.6543C64.179 14.3522 64.4395 12.9134 64.4395 11.3379V11.0352H66.2852ZM65.2402 12.5195H57.9453V11.0352H65.2402V12.5195Z" fill="#FFF2E3"/>
</svg>
