<svg width="62" height="23" viewBox="0 0 62 23" fill="none" xmlns="http://www.w3.org/2000/svg">
<rect width="62" height="23" rx="11.5" fill="#ED653F"/>
<path d="M13.0228 7.04762C10.2456 7.04762 8.00019 8.4619 8.00019 10.1905C8.00019 10.819 8.29564 11.3952 8.82745 11.919C8.29564 12.5476 7.99132 13.3333 8.00019 14.119V15.9524C8.00019 16.5286 8.532 17 9.18199 17H16.8637C17.5196 17 18.0455 16.5338 18.0455 15.9524V14.119C18.0455 13.4905 17.8682 12.8619 17.4546 12.2857L18.6364 11.2381L16.8637 9.66667L15.6228 10.7667C14.7739 10.357 13.8171 10.1556 12.851 10.1832C11.885 10.2109 10.9448 10.4665 10.1274 10.9238C9.90289 10.73 9.77289 10.4681 9.77289 10.1905C9.77289 9.24762 11.2501 8.4619 13.0228 8.4619C13.8501 8.4619 14.6774 8.67143 15.2683 8.98571L16.4501 7.9381C15.4378 7.33657 14.2413 7.02568 13.0228 7.04762ZM13.0228 11.2381C15.091 11.2381 16.8637 12.8095 16.8637 14.119V15.9524H9.18199V14.119C9.18199 12.8095 10.9547 11.2381 13.0228 11.2381ZM13.3183 12.0238C11.5456 12.0238 10.3638 12.8095 10.3638 14.381V14.9048H11.5456V14.381C11.5456 13.8571 11.5456 12.5476 13.3183 12.0238ZM21 9.3C21 10.1538 20.3559 11.0286 19.4518 11.2224L19.0559 10.8662L18.6364 10.5048H19.0796C19.6705 10.5048 20.1136 9.7819 20.1136 9.24762C20.1136 8.71333 19.6114 8.16857 19.0205 8.16857V7.38286C20.1136 7.38286 21 8.33095 21 9.3ZM17.8387 9.00143C17.4723 8.6819 17.2478 8.2419 17.2478 7.75476C17.2478 6.78571 18.1341 6 19.2273 6V6.78571C18.6364 6.78571 18.1341 7.22048 18.1341 7.75476C18.1341 8.28905 18.6364 8.72381 19.2273 8.72381V9.50952C18.7428 9.50952 18.2937 9.64048 17.9214 9.86571L17.2891 9.30524C17.4546 9.19 17.6437 9.08524 17.8387 9.00143Z" fill="#FFF7EF"/>
<path d="M39.8008 17.6553H38.4951V5.40527H39.8008V17.6553ZM32.1924 8.8916C32.1924 9.71647 32.1309 10.5186 32.0078 11.2979C31.8893 12.0771 31.6774 12.8018 31.3721 13.4717C31.0713 14.1416 30.668 14.6794 30.1621 15.085L29.3213 14.1279C29.8044 13.7542 30.1872 13.2803 30.4697 12.7061C30.7568 12.1273 30.9551 11.5166 31.0645 10.874C31.1738 10.2314 31.2285 9.57064 31.2285 8.8916V7.27832H32.1924V8.8916ZM32.459 8.8916C32.459 9.54329 32.5114 10.1973 32.6162 10.8535C32.7256 11.5098 32.9193 12.1387 33.1973 12.7402C33.4753 13.3418 33.8581 13.8385 34.3457 14.2305L33.6348 15.208C33.0924 14.7979 32.6641 14.2419 32.3496 13.54C32.0352 12.8337 31.8164 12.0817 31.6934 11.2842C31.5749 10.4867 31.5156 9.68913 31.5156 8.8916V7.27832H32.459V8.8916ZM35.7676 8.8916C35.7676 9.72559 35.7061 10.5391 35.583 11.332C35.46 12.1204 35.2389 12.8633 34.9199 13.5605C34.6055 14.2533 34.1771 14.8024 33.6348 15.208L32.9102 14.2305C33.4069 13.8477 33.7965 13.36 34.0791 12.7676C34.3662 12.1706 34.5645 11.5439 34.6738 10.8877C34.7832 10.2314 34.8379 9.56608 34.8379 8.8916V7.27832H35.7676V8.8916ZM36.0684 8.8916C36.0684 9.58431 36.123 10.2542 36.2324 10.9014C36.3418 11.5485 36.5355 12.1569 36.8135 12.7266C37.096 13.2962 37.472 13.7633 37.9414 14.1279L37.1348 15.085C36.6289 14.6885 36.2256 14.1576 35.9248 13.4922C35.6286 12.8223 35.4167 12.0999 35.2891 11.3252C35.166 10.5505 35.1045 9.73926 35.1045 8.8916V7.27832H36.0684V8.8916ZM33.3613 7.66113H29.7588V6.59473H33.3613V7.66113ZM37.3877 7.66113H33.9287V6.59473H37.3877V7.66113ZM51.7363 17.6553H50.4238V5.40527H51.7363V17.6553ZM48.0996 6.72461C48.0996 7.97331 47.9059 9.12858 47.5186 10.1904C47.1357 11.2477 46.5205 12.223 45.6729 13.1162C44.8252 14.0049 43.7223 14.7751 42.3643 15.4268L41.667 14.374C42.8473 13.818 43.8158 13.1709 44.5723 12.4326C45.3333 11.6943 45.8962 10.8695 46.2607 9.95801C46.6253 9.04655 46.8076 8.03939 46.8076 6.93652V6.72461H48.0996ZM47.3682 7.76367H42.2617V6.72461H47.3682V7.76367Z" fill="#FFF7EF"/>
</svg>
