<svg width="80" height="32" viewBox="0 0 80 32" fill="none" xmlns="http://www.w3.org/2000/svg">
<rect x="0.5" y="0.5" width="79" height="31" rx="15.5" fill="#FFC6B5"/>
<rect x="0.5" y="0.5" width="79" height="31" rx="15.5" stroke="#ED653F"/>
<path fill-rule="evenodd" clip-rule="evenodd" d="M30 15V22C30 22.5304 29.7893 23.0391 29.4142 23.4142C29.0391 23.7893 28.5304 24 28 24H16C15.4696 24 14.9609 23.7893 14.5858 23.4142C14.2107 23.0391 14 22.5304 14 22V15H13C12.7348 15 12.4804 14.8946 12.2929 14.7071C12.1054 14.5196 12 14.2652 12 14C12 13.7348 12.1054 13.4804 12.2929 13.2929C12.4804 13.1054 12.7348 13 13 13H31C31.2652 13 31.5196 13.1054 31.7071 13.2929C31.8946 13.4804 32 13.7348 32 14C32 14.2652 31.8946 14.5196 31.7071 14.7071C31.5196 14.8946 31.2652 15 31 15H30ZM16 15V22H28V15H16ZM21 10V9C21 8.73478 21.1054 8.48043 21.2929 8.29289C21.4804 8.10536 21.7348 8 22 8C22.2652 8 22.5196 8.10536 22.7071 8.29289C22.8946 8.48043 23 8.73478 23 9V10H29C29.2652 10 29.5196 10.1054 29.7071 10.2929C29.8946 10.4804 30 10.7348 30 11C30 11.2652 29.8946 11.5196 29.7071 11.7071C29.5196 11.8946 29.2652 12 29 12H15C14.7348 12 14.4804 11.8946 14.2929 11.7071C14.1054 11.5196 14 11.2652 14 11C14 10.7348 14.1054 10.4804 14.2929 10.2929C14.4804 10.1054 14.7348 10 15 10H21Z" fill="#ED653F"/>
<path d="M46.5234 22.8281H45.0625V19.2812H41.7812V18.0703H46.5234V22.8281ZM51.7969 22.8281H50.3281V19.2812H47.1641V18.0703H51.7969V22.8281ZM53.2812 16.9375H40.5156V15.7422H53.2812V16.9375ZM47.6328 16.0859H46.1484V13.8203H47.6328V16.0859ZM43.6641 10.6172H50.1484V9.10156H51.6172V14.3906H42.1953V9.10156H43.6641V10.6172ZM50.1484 13.2031V11.7422H43.6641V13.2031H50.1484ZM65.9844 22.8203H64.4844V8.82031H65.9844V22.8203ZM61.8281 10.3281C61.8281 11.7552 61.6068 13.0755 61.1641 14.2891C60.7266 15.4974 60.0234 16.612 59.0547 17.6328C58.0859 18.6484 56.8255 19.5286 55.2734 20.2734L54.4766 19.0703C55.8255 18.4349 56.9323 17.6953 57.7969 16.8516C58.6667 16.0078 59.3099 15.0651 59.7266 14.0234C60.1432 12.9818 60.3516 11.8307 60.3516 10.5703V10.3281H61.8281ZM60.9922 11.5156H55.1562V10.3281H60.9922V11.5156Z" fill="#ED653F"/>
</svg>
