<svg width="88" height="36" viewBox="0 0 88 36" fill="none" xmlns="http://www.w3.org/2000/svg">
<rect x="1" y="1" width="86" height="34" rx="17" fill="#ED653F"/>
<rect x="1" y="1" width="86" height="34" rx="17" stroke="#FFF2E3" stroke-width="2"/>
<path d="M12 20.033L33 14.6459" stroke="#FFF2E3"/>
<path d="M25.6311 16.9909C26.2686 20.2529 24.1855 23.5124 20.7409 24.396C17.2963 25.2796 13.79 23.454 12.6384 20.3239L25.6311 16.9909Z" fill="#FFF2E3" stroke="#FFF2E3"/>
<path d="M14.6705 15.3976C14.6705 15.9393 14.2054 16.4152 13.5853 16.4152C12.9651 16.4152 12.5 15.9393 12.5 15.3976C12.5 14.8558 12.9651 14.3799 13.5853 14.3799C14.2054 14.3799 14.6705 14.8558 14.6705 15.3976Z" fill="#FFF2E3" stroke="#FFF2E3"/>
<rect y="0.691541" width="2.10368" height="2.10368" transform="matrix(0.722337 0.691541 -0.722337 0.691541 17.9119 9.54009)" fill="#FFF2E3" stroke="#FFF2E3"/>
<path d="M49.1543 26.6602H47.3281V22.2266H43.2266V20.7129H49.1543V26.6602ZM55.7461 26.6602H53.9102V22.2266H49.9551V20.7129H55.7461V26.6602ZM57.6016 19.2969H41.6445V17.8027H57.6016V19.2969ZM50.541 18.2324H48.6855V15.4004H50.541V18.2324ZM45.5801 11.3965H53.6855V9.50195H55.5215V16.1133H43.7441V9.50195H45.5801V11.3965ZM53.6855 14.6289V12.8027H45.5801V14.6289H53.6855ZM73.4805 26.6504H71.6055V9.15039H73.4805V26.6504ZM68.2852 11.0352C68.2852 12.819 68.0085 14.4694 67.4551 15.9863C66.9082 17.4967 66.0293 18.89 64.8184 20.166C63.6074 21.4355 62.0319 22.5358 60.0918 23.4668L59.0957 21.9629C60.7819 21.1686 62.1654 20.2441 63.2461 19.1895C64.3333 18.1348 65.1374 16.9564 65.6582 15.6543C66.179 14.3522 66.4395 12.9134 66.4395 11.3379V11.0352H68.2852ZM67.2402 12.5195H59.9453V11.0352H67.2402V12.5195Z" fill="#FFF2E3"/>
</svg>
