<svg width="65" height="23" viewBox="0 0 65 23" fill="none" xmlns="http://www.w3.org/2000/svg">
<rect width="65" height="23" rx="11.5" fill="#ED653F"/>
<path d="M8 13.0489L24 8.94448" stroke="#FFF7EF"/>
<path d="M14.7624 16.74C17.7079 15.9844 19.4559 13.0859 18.6667 10.2659L8 13.0022C8.78925 15.8221 11.8169 17.4956 14.7624 16.74Z" fill="#FFF7EF"/>
<ellipse cx="9.20782" cy="9.51717" rx="1.20782" ry="1.15633" fill="#FFF7EF"/>
<rect width="2.36471" height="2.36471" transform="matrix(0.722337 0.691541 -0.722337 0.691541 12.1238 4.89185)" fill="#FFF7EF"/>
<path d="M37.708 17.6621H36.4297V14.5586H33.5586V13.499H37.708V17.6621ZM42.3223 17.6621H41.0371V14.5586H38.2686V13.499H42.3223V17.6621ZM43.6211 12.5078H32.4512V11.4619H43.6211V12.5078ZM38.6787 11.7627H37.3799V9.78027H38.6787V11.7627ZM35.2061 6.97754H40.8799V5.65137H42.165V10.2793H33.9209V5.65137H35.2061V6.97754ZM40.8799 9.24023V7.96191H35.2061V9.24023H40.8799ZM54.7363 17.6553H53.4238V5.40527H54.7363V17.6553ZM51.0996 6.72461C51.0996 7.97331 50.9059 9.12858 50.5186 10.1904C50.1357 11.2477 49.5205 12.223 48.6729 13.1162C47.8252 14.0049 46.7223 14.7751 45.3643 15.4268L44.667 14.374C45.8473 13.818 46.8158 13.1709 47.5723 12.4326C48.3333 11.6943 48.8962 10.8695 49.2607 9.95801C49.6253 9.04655 49.8076 8.03939 49.8076 6.93652V6.72461H51.0996ZM50.3682 7.76367H45.2617V6.72461H50.3682V7.76367Z" fill="#FFF7EF"/>
</svg>
