<svg width="60" height="60" viewBox="0 0 60 60" fill="none" xmlns="http://www.w3.org/2000/svg">
<circle cx="30" cy="30" r="29" fill="#ED653F" stroke="#FFF2E3" stroke-width="2"/>
<path d="M20.0576 32.25C20.2511 32 20.3962 31.694 20.4929 31.332C20.5896 30.97 20.638 30.526 20.638 30C20.638 29.25 20.3962 28.3 19.9125 27.15C19.4288 26 19.1869 25.1375 19.1869 24.5625C19.1869 24.2625 19.2174 23.95 19.2784 23.625C19.3393 23.3 19.5023 22.925 19.7674 22.5H21.944C21.6779 22.925 21.5149 23.3 21.4549 23.625C21.395 23.95 21.3645 24.2625 21.3635 24.5625C21.3635 25.1375 21.6054 26 22.0891 27.15C22.5727 28.3 22.8146 29.25 22.8146 30C22.8146 30.525 22.7662 30.9565 22.6695 31.2945C22.5727 31.6325 22.4276 31.951 22.2342 32.25H20.0576ZM29.4894 32.25C29.6829 32 29.828 31.694 29.9248 31.332C30.0215 30.97 30.0699 30.526 30.0699 30C30.0699 29.25 29.828 28.3 29.3443 27.15C28.8607 26 28.6188 25.1375 28.6188 24.5625C28.6188 24.2625 28.6493 23.95 28.7102 23.625C28.7712 23.3 28.9342 22.925 29.1992 22.5H31.3758C31.1098 22.925 30.9468 23.3 30.8868 23.625C30.8268 23.95 30.7964 24.2625 30.7954 24.5625C30.7954 25.1375 31.0372 26 31.5209 27.15C32.0046 28.3 32.2464 29.25 32.2464 30C32.2464 30.525 32.1981 30.9565 32.1013 31.2945C32.0046 31.6325 31.8595 31.951 31.666 32.25H29.4894ZM24.7735 32.25C24.967 32 25.1121 31.694 25.2088 31.332C25.3056 30.97 25.3539 30.526 25.3539 30C25.3539 29.25 25.1121 28.3 24.6284 27.15C24.1447 26 23.9029 25.1375 23.9029 24.5625C23.9029 24.2625 23.9334 23.95 23.9943 23.625C24.0552 23.3 24.2182 22.925 24.4833 22.5H26.6599C26.3939 22.925 26.2309 23.3 26.1709 23.625C26.1109 23.95 26.0804 24.2625 26.0795 24.5625C26.0795 25.1375 26.3213 26 26.805 27.15C27.2887 28.3 27.5305 29.25 27.5305 30C27.5305 30.525 27.4821 30.9565 27.3854 31.2945C27.2887 31.6325 27.1436 31.951 26.9501 32.25H24.7735ZM26.805 45C24.3624 45 22.2163 44.1565 20.3667 42.4695C18.517 40.7825 17.3983 38.6885 17.0104 36.1875C16.962 35.7375 17.0829 35.3435 17.3731 35.0055C17.6633 34.6675 18.0261 34.499 18.4614 34.5H33.7338L35.3299 18.975C35.4509 17.85 35.9167 16.906 36.7273 16.143C37.538 15.38 38.5111 14.999 39.6468 15C40.856 15 41.8839 15.4375 42.7303 16.3125C43.5768 17.1875 44 18.25 44 19.5C44 19.85 43.97 20.3125 43.91 20.8875L43.8186 21.75L40.9528 21.375L41.0253 20.6055C41.0737 20.0935 41.0979 19.725 41.0979 19.5C41.0979 19.075 40.9586 18.719 40.68 18.432C40.4014 18.145 40.057 18.001 39.6468 18C39.2599 18 38.9334 18.1315 38.6674 18.3945C38.4013 18.6575 38.2441 18.976 38.1958 19.35L36.5271 35.6625C36.261 38.3125 35.209 40.5315 33.371 42.3195C31.533 44.1075 29.3443 45.001 26.805 45Z" fill="#FFF2E3"/>
</svg>
