<svg width="60" height="60" viewBox="0 0 60 60" fill="none" xmlns="http://www.w3.org/2000/svg">
<circle cx="30" cy="30" r="30" fill="#FFF2E3"/>
<path d="M24.2306 20.3117C24.8077 19.2449 25.669 18.359 26.7191 17.7521C27.7692 17.1453 28.9669 16.8413 30.1793 16.8739C31.3916 16.9066 32.5712 17.2745 33.5872 17.937C34.6031 18.5994 35.4155 19.5304 35.9344 20.6267C34.5687 20.6577 33.2415 21.0857 32.1151 21.8585C30.9887 22.6314 30.1117 23.7155 29.5912 24.9786C29.1116 24.1789 28.5368 23.4404 27.8794 22.7792C26.8229 21.7421 25.5865 20.9059 24.2306 20.3117ZM43.11 28.1249C43.2168 26.5246 42.7737 24.9359 41.854 23.622C40.9343 22.308 39.5933 21.3478 38.0531 20.9004C37.5478 19.2993 36.5764 17.8854 35.2633 16.8392C33.9502 15.793 32.3549 15.1621 30.6814 15.0273C29.0079 14.8924 27.3322 15.2597 25.8685 16.0821C24.4048 16.9045 23.2196 18.1447 22.4644 19.6442C21.7185 19.4123 20.9589 19.2269 20.19 19.0892C18.8895 18.8551 17.5701 18.7415 16.2487 18.7498C16.1337 18.7519 16.0187 18.7556 15.9038 18.761H15.8962C15.667 18.7748 15.4508 18.8721 15.2884 19.0345C15.1261 19.1968 15.0288 19.4131 15.015 19.6423V19.6442C14.9995 20.0646 14.9989 20.4855 15.0131 20.906C15.0375 21.6729 15.1181 22.7379 15.3356 23.9417C15.5662 25.2205 15.9562 26.6867 16.62 28.123H15.9375C15.6889 28.123 15.4504 28.2218 15.2746 28.3976C15.0988 28.5734 15 28.8118 15 29.0605V29.998C15 31.2918 15.165 32.548 15.4725 33.748H44.5275C44.8425 32.5229 45.0012 31.2629 45 29.998V29.0605C45 28.8118 44.9012 28.5734 44.7254 28.3976C44.5496 28.2218 44.3111 28.123 44.0625 28.123L43.11 28.1249ZM18.72 28.1249C17.9062 26.6586 17.4412 25.0517 17.1825 23.6098C17.0054 22.6252 16.9039 21.6286 16.8787 20.6285L17.0925 20.636C17.79 20.6604 18.7612 20.7354 19.8562 20.9342C22.0687 21.3335 24.6675 22.2186 26.5537 24.1048C27.7087 25.2598 28.4906 26.6848 29.0156 28.1249H25.7025L22.2262 24.6486C22.1391 24.5615 22.0356 24.4925 21.9218 24.4454C21.8079 24.3984 21.686 24.3742 21.5628 24.3743C21.4396 24.3744 21.3176 24.3987 21.2039 24.446C21.0901 24.4932 20.9867 24.5623 20.8997 24.6495C20.8126 24.7367 20.7436 24.8401 20.6966 24.954C20.6495 25.0678 20.6253 25.1898 20.6254 25.313C20.6255 25.4362 20.6499 25.5581 20.6971 25.6719C20.7443 25.7857 20.8135 25.889 20.9006 25.9761L23.0512 28.1249H18.72ZM30.9975 28.1249C30.9809 28.0741 30.9641 28.0235 30.9469 27.973C30.9061 27.2656 31.0115 26.5574 31.2566 25.8926C31.5016 25.2278 31.8811 24.6206 32.3713 24.1089C32.8614 23.5973 33.4518 23.1922 34.1055 22.9189C34.7592 22.6455 35.4622 22.5099 36.1707 22.5203C36.8792 22.5308 37.5779 22.6871 38.2232 22.9797C38.8686 23.2722 39.4467 23.6946 39.9216 24.2205C40.3964 24.7463 40.7578 25.3645 40.9831 26.0362C41.2084 26.708 41.2929 27.419 41.2312 28.1249H30.9975ZM30 45C27.0117 44.9999 24.0914 44.1076 21.6134 42.4373C19.1354 40.767 17.2126 38.3949 16.0912 35.6249H43.9106C42.7892 38.3952 40.866 40.7675 38.3877 42.4378C35.9093 44.1081 32.9887 45.0003 30 45Z" fill="#ED653F"/>
</svg>
