<svg width="60" height="60" viewBox="0 0 60 60" fill="none" xmlns="http://www.w3.org/2000/svg">
<circle cx="30" cy="30" r="30" fill="#FFF2E3"/>
<path d="M45 28.3659H41.55C41.1 26.7024 40.35 25.039 39.3 23.8293L44.4 15.6634L41.85 14L37.05 21.7122C36.45 21.2585 36 20.9561 35.25 20.6537L36.6 15.2098L33.75 14.4537L32.55 19.5951C31.65 19.4439 30.9 19.2927 30 19.2927C24.45 19.2927 19.8 23.2244 18.45 28.3659H15C15 34.5659 18.75 39.8585 24 42.278V45H36V42.278C41.25 39.8585 45 34.5659 45 28.3659ZM30 22.3171C33.9 22.3171 37.2 24.8878 38.4 28.3659H21.6C22.8 24.8878 26.1 22.3171 30 22.3171Z" fill="#ED653F"/>
</svg>
