<svg width="60" height="60" viewBox="0 0 60 60" fill="none" xmlns="http://www.w3.org/2000/svg">
<circle cx="30" cy="30" r="29" fill="#ED653F" stroke="#FFF2E3" stroke-width="2"/>
<path d="M29.3636 15C30 15.3333 31.2727 17.5333 31.2727 19C31.2727 20.4667 30.42 21 29.3636 21C28.3073 21 27.4545 20.8 27.4545 19.3333C27.4545 17.8667 28.7273 17 29.3636 15ZM38.2727 26.3333C41.4545 26.3333 44 29 44 32.3333C44 34.4133 42.9945 36.24 41.4545 37.32V45H18.5455V37.32C17.0055 36.24 16 34.4133 16 32.3333C16 29 18.5455 26.3333 21.7273 26.3333H27.4545V22.3333H31.2727V26.3333H38.2727ZM30 35.6667C30.8439 35.6667 31.6532 35.3155 32.2499 34.6904C32.8466 34.0652 33.1818 33.2174 33.1818 32.3333H35.0909C35.0909 33.2174 35.4261 34.0652 36.0228 34.6904C36.6195 35.3155 37.4289 35.6667 38.2727 35.6667C39.1166 35.6667 39.9259 35.3155 40.5226 34.6904C41.1193 34.0652 41.4545 33.2174 41.4545 32.3333C41.4545 31.4493 41.1193 30.6014 40.5226 29.9763C39.9259 29.3512 39.1166 29 38.2727 29H21.7273C20.8834 29 20.0741 29.3512 19.4774 29.9763C18.8807 30.6014 18.5455 31.4493 18.5455 32.3333C18.5455 33.2174 18.8807 34.0652 19.4774 34.6904C20.0741 35.3155 20.8834 35.6667 21.7273 35.6667C22.5711 35.6667 23.3805 35.3155 23.9772 34.6904C24.5739 34.0652 24.9091 33.2174 24.9091 32.3333H26.8182C26.8182 33.2174 27.1534 34.0652 27.7501 34.6904C28.3468 35.3155 29.1561 35.6667 30 35.6667Z" fill="#FFF2E3"/>
</svg>
